<svg width="234" height="234" viewBox="0 0 234 234" fill="none" xmlns="http://www.w3.org/2000/svg">
<g clip-path="url(#clip0_8_497)">
<g filter="url(#filter0_d_8_497)">
<path d="M211.491 197.656L175.349 161.807C189.378 144.315 196.172 122.112 194.334 99.7649C192.496 77.4176 182.165 56.6238 165.466 41.6593C148.768 26.6947 126.97 18.6968 104.556 19.3102C82.1412 19.9235 60.8136 29.1014 44.9583 44.9568C29.1029 60.8121 19.925 82.1397 19.3116 104.554C18.6983 126.969 26.6962 148.766 41.6607 165.465C56.6253 182.164 77.419 192.494 99.7664 194.332C122.114 196.17 144.316 189.377 161.808 175.348L197.658 211.197C198.563 212.11 199.641 212.835 200.828 213.329C202.015 213.824 203.288 214.079 204.574 214.079C205.86 214.079 207.133 213.824 208.321 213.329C209.508 212.835 210.585 212.11 211.491 211.197C213.246 209.38 214.228 206.953 214.228 204.427C214.228 201.9 213.246 199.473 211.491 197.656V197.656ZM107.157 175.348C93.6704 175.348 80.4862 171.348 69.2722 163.855C58.0581 156.362 49.3178 145.712 44.1565 133.252C38.9953 120.791 37.6448 107.08 40.276 93.8524C42.9072 80.6245 49.4019 68.4739 58.9386 58.9372C68.4754 49.4004 80.626 42.9058 93.8539 40.2746C107.082 37.6434 120.793 38.9938 133.253 44.1551C145.714 49.3163 156.364 58.0566 163.857 69.2707C171.35 80.4848 175.349 93.6689 175.349 107.156C175.349 125.242 168.165 142.586 155.376 155.375C142.588 168.163 125.243 175.348 107.157 175.348V175.348Z" fill="url(#paint0_linear_8_497)"/>
<path d="M104.689 24.1787C125.858 23.5995 146.444 31.154 162.215 45.2871C177.986 59.4202 187.743 79.0583 189.479 100.164C191.215 121.27 184.799 142.239 171.549 158.759L168.807 162.179L171.918 165.265L208.015 201.07C208.876 201.975 209.357 203.177 209.357 204.427C209.357 205.679 208.874 206.882 208.01 207.787C207.562 208.234 207.032 208.59 206.448 208.833C205.854 209.08 205.217 209.208 204.574 209.208C203.931 209.208 203.294 209.08 202.701 208.833C202.107 208.586 201.568 208.223 201.116 207.767L165.252 171.903L162.166 168.817L158.76 171.548C142.24 184.797 121.271 191.214 100.166 189.478C79.0598 187.741 59.4217 177.985 45.2886 162.214C31.1554 146.443 23.6009 125.857 24.1802 104.688C24.7594 83.5183 33.4283 63.3759 48.4028 48.4014C63.3773 33.4269 83.5198 24.758 104.689 24.1787ZM135.118 39.6553C121.767 34.1254 107.076 32.678 92.9038 35.4971C78.7311 38.3162 65.7126 45.2752 55.4946 55.4932C45.2767 65.7111 38.3177 78.7296 35.4985 92.9023C32.6795 107.075 34.1268 121.766 39.6567 135.116C45.1867 148.466 54.551 159.877 66.5659 167.905C78.581 175.933 92.7073 180.219 107.158 180.219C126.535 180.219 145.119 172.521 158.821 158.819C172.523 145.118 180.22 126.534 180.22 107.156C180.22 92.7059 175.935 78.5795 167.907 66.5645C159.879 54.5496 148.468 45.1852 135.118 39.6553Z" stroke="black" stroke-width="9.74167"/>
</g>
</g>
<defs>
<filter id="filter0_d_8_497" x="-19.6879" y="19.2773" width="272.883" height="272.734" filterUnits="userSpaceOnUse" color-interpolation-filters="sRGB">
<feFlood flood-opacity="0" result="BackgroundImageFix"/>
<feColorMatrix in="SourceAlpha" type="matrix" values="0 0 0 0 0 0 0 0 0 0 0 0 0 0 0 0 0 0 127 0" result="hardAlpha"/>
<feOffset dy="38.9667"/>
<feGaussianBlur stdDeviation="19.4833"/>
<feComposite in2="hardAlpha" operator="out"/>
<feColorMatrix type="matrix" values="0 0 0 0 0 0 0 0 0 0 0 0 0 0 0 0 0 0 0.25 0"/>
<feBlend mode="normal" in2="BackgroundImageFix" result="effect1_dropShadow_8_497"/>
<feBlend mode="normal" in="SourceGraphic" in2="effect1_dropShadow_8_497" result="shape"/>
</filter>
<linearGradient id="paint0_linear_8_497" x1="19.2788" y1="19.2773" x2="247.719" y2="159.528" gradientUnits="userSpaceOnUse">
<stop stop-color="#F3F9FF"/>
<stop offset="1" stop-color="#F1F0FF"/>
</linearGradient>
<clipPath id="clip0_8_497">
<rect width="233.8" height="233.8" fill="white"/>
</clipPath>
</defs>
</svg>
